<?xml version="1.0" standalone="no"?>
<!DOCTYPE svg PUBLIC "-//W3C//DTD SVG 20010904//EN"
 "http://www.w3.org/TR/2001/REC-SVG-20010904/DTD/svg10.dtd">
<svg version="1.0" xmlns="http://www.w3.org/2000/svg"
 viewBox="0 0 2600.000000 2600.000000"
 preserveAspectRatio="xMidYMid meet">
<metadata>
Created by potrace 1.15, written by Peter Selinger 2001-2017
</metadata>
<g transform="translate(0.000000,2600.000000) scale(0.100000,-0.100000)"
fill="#f1f1f1" stroke="none">
<path d="M18310 21319 c-531 -60 -1059 -373 -1560 -922 -324 -356 -505 -600
-1007 -1357 -196 -294 -390 -578 -431 -630 -277 -348 -726 -683 -1292 -964
-668 -331 -1428 -541 -1835 -506 l-90 8 -140 85 c-683 413 -1271 611 -1682
569 -185 -19 -333 -69 -470 -158 -32 -21 -191 -169 -360 -338 l-302 -299 -133
63 c-367 173 -719 292 -1043 351 -163 30 -487 33 -613 6 -171 -38 -304 -93
-422 -175 -71 -49 -2350 -2317 -2425 -2413 -99 -127 -168 -280 -206 -460 -30
-137 -32 -408 -5 -574 101 -629 434 -1357 1032 -2255 875 -1316 2179 -2774
3584 -4006 1185 -1040 2333 -1824 3233 -2208 454 -194 842 -290 1177 -289 301
0 535 71 733 219 81 61 2299 2275 2384 2379 39 48 86 124 119 190 222 450 142
1077 -244 1913 l-75 164 285 286 c342 345 366 375 436 544 189 457 21 1131
-495 1983 -80 131 -86 145 -96 220 -33 254 83 811 274 1318 298 787 740 1457
1204 1827 44 35 305 213 580 395 876 581 1206 834 1571 1206 401 410 624 782
718 1200 125 559 -29 1121 -452 1649 -110 137 -398 420 -534 525 -460 355
-939 508 -1418 454z m324 -1199 c166 -42 352 -165 551 -365 271 -270 399 -514
380 -725 -12 -143 -85 -307 -213 -480 -77 -104 -381 -405 -532 -526 -286 -230
-501 -382 -1140 -806 -568 -376 -707 -486 -958 -758 -358 -387 -651 -819 -916
-1350 -533 -1068 -750 -2181 -552 -2836 30 -100 32 -105 172 -336 199 -332
346 -645 395 -846 l22 -93 -115 -116 -115 -115 -89 128 c-772 1124 -1877 2384
-2989 3410 -774 714 -1600 1381 -2259 1823 l-79 53 116 116 116 116 93 -22
c221 -54 553 -214 960 -464 141 -87 261 -126 483 -159 129 -20 474 -17 655 5
938 113 2016 555 2840 1164 360 267 718 622 923 918 27 38 184 274 350 524
425 641 615 900 870 1188 222 251 448 432 641 514 138 59 261 71 390 38z
m-10792 -4065 c443 -93 1224 -512 2038 -1093 1740 -1243 3695 -3250 4792
-4922 518 -788 828 -1458 828 -1787 l0 -68 -610 -610 c-335 -335 -611 -607
-613 -605 -2 3 -25 59 -52 125 -615 1528 -2474 3822 -4515 5574 -868 745
-1653 1316 -2399 1742 -260 149 -720 369 -906 433 -16 6 84 110 590 616 l610
610 82 0 c45 0 115 -7 155 -15z"/>
</g>
</svg>
